 <svg width="166" height="41" viewBox="0 0 166 41" fill="none" xmlns="http://www.w3.org/2000/svg"> <path d="M22.9069 3.39123C22.9666 3.49524 22.8876 3.62382 22.7701 3.62382C20.3907 3.62382 18.4564 5.55997 18.411 7.96588C17.5963 7.80954 16.7521 7.79779 15.9181 7.9422C15.8605 5.54728 13.9311 3.62382 11.5595 3.62382C11.4419 3.62382 11.3628 3.49514 11.4226 3.39105C12.5744 1.38621 14.7147 0.0390625 17.1647 0.0390625C19.6148 0.0390625 21.7551 1.38629 22.9069 3.39123Z" fill="url(#paint0_linear_2354_12634)"></path> <path d="M29.954 18.2713C30.7634 18.5232 31.526 17.7921 31.2206 16.9816C28.9507 10.9587 22.2323 8.49122 17.1321 8.49122C12.022 8.49122 5.15394 11.0385 3.03186 17.0192C2.74616 17.8244 3.50679 18.5314 4.3041 18.2803L16.5265 14.431C16.8793 14.3199 17.2563 14.3193 17.6095 14.4292L29.954 18.2713Z" fill="url(#paint1_linear_2354_12634)"></path> <path d="M2.91256 19.4308L16.5368 15.184C16.8875 15.0747 17.2618 15.0744 17.6127 15.1831L31.3225 19.4329C32.4674 19.7878 33.2508 20.8716 33.2508 22.1006V34.9048C33.1977 38.0302 30.4659 40.5353 27.426 40.5353H22.3768C21.8777 40.5353 21.4735 40.1204 21.4735 39.6074V35.1181C21.4735 33.3504 22.4914 31.7505 24.0665 31.0423C26.178 30.0931 28.6758 28.8091 29.1456 26.2325C29.2973 25.4009 28.7697 24.5987 27.9626 24.4339C25.9218 24.017 23.6594 24.178 21.7462 25.0575C19.5743 26.0559 19.0061 27.7167 18.7958 29.9472L18.5409 32.35C18.463 33.0845 17.7931 33.6471 17.0746 33.6471C16.3314 33.6471 15.7741 33.0653 15.6935 32.3055L15.4433 29.9472C15.2631 28.0367 14.9365 26.1808 13.0148 25.2974C10.8228 24.2897 8.61992 23.9551 6.27649 24.4339C5.46942 24.5987 4.9418 25.4009 5.09344 26.2325C5.56735 28.8315 8.04562 30.0861 10.1726 31.0423C11.7477 31.7505 12.7656 33.3504 12.7656 35.1181V39.6066C12.7656 40.1196 12.3616 40.5353 11.8625 40.5353H6.81311C3.77316 40.5353 1.04137 38.0302 0.988281 34.9048V22.0973C0.988281 20.8699 1.76973 19.787 2.91256 19.4308Z" fill="url(#paint2_linear_2354_12634)"></path> <path d="M43.3584 35.5892V13.0234H53.5683C55.9977 13.0234 57.8722 13.5462 59.1916 14.5918C60.511 15.6374 61.1708 17.0671 61.1708 18.8809C61.1708 20.2253 60.7728 21.3669 59.977 22.3058C59.2021 23.2447 58.134 23.8742 56.7726 24.1943V23.6821C58.3643 23.9595 59.5895 24.5784 60.4482 25.5386C61.3278 26.4775 61.7676 27.7045 61.7676 29.2195C61.7676 31.2254 61.066 32.7938 59.6628 33.9247C58.2806 35.0344 56.3643 35.5892 53.9139 35.5892H43.3584ZM48.0392 31.8762H53.317C54.5317 31.8762 55.4637 31.6415 56.1129 31.172C56.7622 30.7026 57.0868 29.9557 57.0868 28.9315C57.0868 27.8859 56.7622 27.139 56.1129 26.6909C55.4637 26.2215 54.5317 25.9867 53.317 25.9867H48.0392V31.8762ZM48.0392 22.3058H52.6887C53.9662 22.3058 54.9087 22.0711 55.516 21.6016C56.1234 21.1322 56.4271 20.428 56.4271 19.4891C56.4271 18.5715 56.1234 17.878 55.516 17.4086C54.9087 16.9391 53.9662 16.7044 52.6887 16.7044H48.0392V22.3058Z" fill="white"></path> <path d="M64.8868 35.5892V23.6501C64.8868 22.946 64.8659 22.2311 64.824 21.5056C64.8031 20.7801 64.7507 20.0652 64.6669 19.361H69.2221L69.7562 24.0982H69.0336C69.2431 22.946 69.5781 21.9964 70.0389 21.2495C70.5206 20.5027 71.107 19.9479 71.7981 19.5851C72.5102 19.2223 73.3165 19.041 74.2171 19.041C74.615 19.041 74.9292 19.0623 75.1596 19.105C75.3899 19.1263 75.6203 19.1797 75.8507 19.265L75.8193 23.5221C75.3795 23.3301 75.0025 23.2127 74.6883 23.17C74.3951 23.106 74.0181 23.074 73.5574 23.074C72.6778 23.074 71.9448 23.2447 71.3583 23.5861C70.7929 23.9275 70.3635 24.429 70.0703 25.0905C69.7981 25.752 69.6619 26.5522 69.6619 27.4911V35.5892H64.8868Z" fill="white"></path> <path d="M83.8694 35.9413C82.4871 35.9413 81.2724 35.5998 80.2253 34.917C79.1781 34.2342 78.3613 33.2632 77.7749 32.0043C77.1885 30.7453 76.8952 29.2302 76.8952 27.4591C76.8952 25.7093 77.1885 24.2049 77.7749 22.946C78.3613 21.687 79.1781 20.7267 80.2253 20.0652C81.2724 19.3824 82.4871 19.041 83.8694 19.041C85.1469 19.041 86.2884 19.361 87.2936 20.0012C88.3199 20.62 88.9901 21.4629 89.3042 22.5299H88.9586L89.3356 19.361H93.8908C93.828 20.0652 93.7652 20.7801 93.7023 21.5056C93.6604 22.2098 93.6395 22.9033 93.6395 23.5861V35.5892H88.9272L88.8958 32.5484H89.2728C88.9377 33.5727 88.2675 34.3942 87.2622 35.013C86.2569 35.6318 85.126 35.9413 83.8694 35.9413ZM85.3145 32.2923C86.4036 32.2923 87.2832 31.8976 87.9534 31.108C88.6236 30.3185 88.9586 29.1022 88.9586 27.4591C88.9586 25.816 88.6236 24.6104 87.9534 23.8422C87.2832 23.074 86.4036 22.6899 85.3145 22.6899C84.2254 22.6899 83.3458 23.074 82.6756 23.8422C82.0054 24.6104 81.6703 25.816 81.6703 27.4591C81.6703 29.1022 81.995 30.3185 82.6442 31.108C83.3144 31.8976 84.2045 32.2923 85.3145 32.2923Z" fill="white"></path> <path d="M103.719 35.9413C102.336 35.9413 101.122 35.5998 100.074 34.917C99.0273 34.2342 98.2105 33.2632 97.6241 32.0043C97.0376 30.7453 96.7444 29.2302 96.7444 27.4591C96.7444 25.7093 97.0376 24.2049 97.6241 22.946C98.2105 21.687 99.0273 20.7267 100.074 20.0652C101.122 19.3824 102.336 19.041 103.719 19.041C104.996 19.041 106.138 19.361 107.143 20.0012C108.169 20.62 108.839 21.4629 109.153 22.5299H108.808L109.185 19.361H113.74C113.677 20.0652 113.614 20.7801 113.552 21.5056C113.51 22.2098 113.489 22.9033 113.489 23.5861V35.5892H108.776L108.745 32.5484H109.122C108.787 33.5727 108.117 34.3942 107.111 35.013C106.106 35.6318 104.975 35.9413 103.719 35.9413ZM105.164 32.2923C106.253 32.2923 107.132 31.8976 107.803 31.108C108.473 30.3185 108.808 29.1022 108.808 27.4591C108.808 25.816 108.473 24.6104 107.803 23.8422C107.132 23.074 106.253 22.6899 105.164 22.6899C104.075 22.6899 103.195 23.074 102.525 23.8422C101.855 24.6104 101.52 25.816 101.52 27.4591C101.52 29.1022 101.844 30.3185 102.493 31.108C103.164 31.8976 104.054 32.2923 105.164 32.2923Z" fill="white"></path> <path d="M121.844 35.5892L114.964 19.361H119.959L124.514 31.14H123.477L128.189 19.361H132.87L125.928 35.5892H121.844Z" fill="white"></path> <path d="M141.7 35.9413C140.004 35.9413 138.527 35.5998 137.27 34.917C136.035 34.2128 135.071 33.2312 134.38 31.9722C133.71 30.7133 133.375 29.2089 133.375 27.4591C133.375 25.7307 133.71 24.237 134.38 22.978C135.071 21.719 136.035 20.7481 137.27 20.0652C138.527 19.3824 140.004 19.041 141.7 19.041C143.396 19.041 144.873 19.3824 146.129 20.0652C147.386 20.7481 148.349 21.719 149.02 22.978C149.711 24.237 150.056 25.7307 150.056 27.4591C150.056 29.2089 149.711 30.7133 149.02 31.9722C148.349 33.2312 147.386 34.2128 146.129 34.917C144.873 35.5998 143.396 35.9413 141.7 35.9413ZM141.7 32.2923C142.789 32.2923 143.648 31.8976 144.276 31.108C144.925 30.3185 145.25 29.1022 145.25 27.4591C145.25 25.816 144.925 24.6104 144.276 23.8422C143.648 23.074 142.789 22.6899 141.7 22.6899C140.611 22.6899 139.742 23.074 139.092 23.8422C138.464 24.6104 138.15 25.816 138.15 27.4591C138.15 29.1022 138.464 30.3185 139.092 31.108C139.742 31.8976 140.611 32.2923 141.7 32.2923Z" fill="white"></path> <path d="M158.994 35.9413C157.57 35.9413 156.272 35.7812 155.099 35.4611C153.926 35.1411 152.931 34.6929 152.115 34.1168L153.34 30.916C154.157 31.4281 155.057 31.8335 156.041 32.1323C157.047 32.431 158.042 32.5804 159.026 32.5804C159.947 32.5804 160.628 32.431 161.068 32.1323C161.508 31.8335 161.728 31.4281 161.728 30.916C161.728 30.4892 161.581 30.1585 161.288 29.9237C161.015 29.689 160.586 29.5183 160 29.4116L156.764 28.8034C155.403 28.526 154.366 28.0139 153.654 27.2671C152.942 26.5202 152.586 25.5493 152.586 24.3543C152.586 23.3087 152.858 22.3911 153.403 21.6016C153.968 20.7907 154.774 20.1612 155.822 19.7131C156.869 19.265 158.094 19.041 159.497 19.041C160.691 19.041 161.822 19.1903 162.89 19.4891C163.958 19.7878 164.869 20.2466 165.623 20.8654L164.335 23.9702C163.686 23.4794 162.932 23.0847 162.073 22.7859C161.235 22.4872 160.429 22.3378 159.654 22.3378C158.649 22.3378 157.926 22.5085 157.487 22.8499C157.047 23.17 156.827 23.5861 156.827 24.0982C156.827 24.4823 156.952 24.8024 157.204 25.0585C157.476 25.3146 157.884 25.5066 158.429 25.6346L161.696 26.2428C163.099 26.4989 164.167 26.979 164.9 27.6832C165.633 28.3873 166 29.3582 166 30.5959C166 31.7269 165.707 32.6871 165.12 33.4766C164.534 34.2662 163.707 34.8743 162.639 35.3011C161.591 35.7279 160.377 35.9413 158.994 35.9413Z" fill="white"></path> <defs> <linearGradient id="paint0_linear_2354_12634" x1="16.8032" y1="-2.14774" x2="31.6598" y2="40.4802" gradientUnits="userSpaceOnUse"> <stop stop-color="#F5B75E"></stop> <stop offset="1" stop-color="#FF9600"></stop> </linearGradient> <linearGradient id="paint1_linear_2354_12634" x1="16.8032" y1="-2.14774" x2="31.6598" y2="40.4802" gradientUnits="userSpaceOnUse"> <stop stop-color="#F5B75E"></stop> <stop offset="1" stop-color="#FF9600"></stop> </linearGradient> <linearGradient id="paint2_linear_2354_12634" x1="16.8032" y1="-2.14774" x2="31.6598" y2="40.4802" gradientUnits="userSpaceOnUse"> <stop stop-color="#F5B75E"></stop> <stop offset="1" stop-color="#FF9600"></stop> </linearGradient> </defs> </svg>